<svg width="32" height="32" viewBox="0 0 32 32" fill="none" xmlns="http://www.w3.org/2000/svg">
  <defs>
    <linearGradient id="voiceGradient" x1="0%" y1="0%" x2="100%" y2="100%">
      <stop offset="0%" style="stop-color:#2563eb;stop-opacity:1" />
      <stop offset="50%" style="stop-color:#0ea5e9;stop-opacity:1" />
      <stop offset="100%" style="stop-color:#dc2626;stop-opacity:1" />
    </linearGradient>
    <linearGradient id="backgroundGradient" x1="0%" y1="0%" x2="100%" y2="100%">
      <stop offset="0%" style="stop-color:#f8fafc;stop-opacity:1" />
      <stop offset="100%" style="stop-color:#e2e8f0;stop-opacity:1" />
    </linearGradient>
  </defs>
  
  <!-- Background circle -->
  <circle cx="16" cy="16" r="15" fill="url(#backgroundGradient)" stroke="url(#voiceGradient)" stroke-width="2"/>
  
  <!-- Main voice/speech bubble icon -->
  <path d="M8 12c0-2.21 1.79-4 4-4h8c2.21 0 4 1.79 4 4v4c0 2.21-1.79 4-4 4h-2l-3 3v-3H12c-2.21 0-4-1.79-4-4v-4z" fill="url(#voiceGradient)" opacity="0.9"/>
  
  <!-- Sound waves/voice lines -->
  <circle cx="16" cy="14" r="1.5" fill="white" opacity="0.9"/>
  <circle cx="12" cy="14" r="1" fill="white" opacity="0.7"/>
  <circle cx="20" cy="14" r="1" fill="white" opacity="0.7"/>
  
  <!-- Small accent dots representing "people" -->
  <circle cx="10" cy="26" r="1.5" fill="url(#voiceGradient)" opacity="0.6"/>
  <circle cx="16" cy="26" r="1.5" fill="url(#voiceGradient)" opacity="0.8"/>
  <circle cx="22" cy="26" r="1.5" fill="url(#voiceGradient)" opacity="0.6"/>
</svg>
